<?xml version="1.0" standalone="no"?>
<!DOCTYPE svg PUBLIC "-//W3C//DTD SVG 20010904//EN"
 "http://www.w3.org/TR/2001/REC-SVG-20010904/DTD/svg10.dtd">
<svg version="1.0" xmlns="http://www.w3.org/2000/svg"
 width="442.000000pt" height="442.000000pt" viewBox="0 0 442.000000 442.000000"
 preserveAspectRatio="xMidYMid meet">
<metadata>
Created by potrace 1.11, written by Peter Selinger 2001-2013
</metadata>
<g transform="translate(0.000000,442.000000) scale(0.100000,-0.100000)"
fill="#000000" stroke="none">
<path d="M2250 4369 c-39 -16 -57 -36 -152 -177 -50 -73 -125 -170 -168 -215
l-77 -82 3 -70 c1 -38 5 -101 8 -140 10 -111 18 -199 20 -209 0 -4 -12 -10
-27 -11 -16 -2 -34 -9 -41 -15 -10 -8 -22 0 -49 32 -19 24 -47 57 -62 73 -14
17 -33 40 -42 53 -8 12 -22 22 -29 22 -8 0 -137 -77 -287 -172 -150 -95 -362
-229 -472 -298 -110 -70 -292 -184 -403 -255 -212 -133 -237 -156 -211 -195
12 -19 143 -77 375 -169 59 -24 61 -25 49 -49 -7 -13 -12 -29 -11 -36 1 -7 48
-92 106 -189 83 -142 109 -178 132 -186 24 -8 27 -14 20 -28 -8 -16 -26 -82
-38 -138 -4 -17 -13 -78 -29 -190 -6 -40 -6 -272 -1 -310 3 -16 7 -52 10 -80
3 -27 8 -61 11 -75 2 -14 7 -38 11 -55 23 -118 102 -337 158 -435 14 -25 29
-52 33 -60 17 -39 119 -182 170 -241 201 -231 472 -375 758 -406 124 -13 312
-7 409 13 12 2 37 7 56 10 125 21 406 128 515 197 10 6 49 30 85 52 246 148
504 400 663 645 92 144 199 386 221 503 2 12 7 40 11 62 4 22 10 49 12 60 12
49 10 324 -3 396 -33 184 -132 402 -241 531 -120 141 -318 313 -430 374 -21
12 -63 35 -93 52 -163 90 -359 150 -613 187 -55 8 -282 8 -351 0 -40 -5 -56
-3 -52 4 9 13 -11 52 -35 69 -15 10 -16 18 -8 45 6 17 17 55 25 82 8 28 16 57
19 65 2 8 22 80 43 160 41 155 57 192 94 227 32 30 71 43 131 43 46 0 74 -11
222 -85 426 -215 706 -331 949 -394 139 -36 208 -42 280 -21 55 15 85 40 92
74 4 23 -2 35 -34 66 -54 50 -369 209 -882 443 -30 13 -95 43 -145 66 -49 23
-130 61 -180 84 -133 61 -172 86 -278 176 -130 108 -195 140 -247 120z m355
-1424 c220 -25 452 -111 652 -241 275 -178 479 -454 528 -713 25 -133 21 -303
-10 -441 -3 -14 -8 -35 -11 -47 -10 -48 -58 -172 -101 -258 -204 -410 -603
-759 -1046 -914 -90 -32 -97 -33 -182 -51 -124 -26 -311 -33 -420 -17 -241 35
-456 156 -616 347 -186 221 -306 510 -336 805 -15 150 -1 369 29 465 26 82 10
67 598 560 173 145 324 272 335 282 85 76 236 194 265 206 66 29 167 34 315
17z"/>
<path d="M2650 2724 c-83 -17 -112 -31 -108 -52 2 -11 18 -20 48 -25 233 -42
361 -103 493 -234 50 -49 147 -180 147 -198 0 -3 14 -35 32 -70 47 -98 73 -86
71 31 -5 260 -162 474 -395 539 -72 20 -216 25 -288 9z"/>
<path d="M1165 1528 c3 -126 29 -296 56 -365 6 -15 12 -36 14 -46 16 -77 130
-292 213 -400 328 -430 902 -478 1472 -124 261 163 500 414 634 669 40 75 99
226 110 281 3 12 9 43 14 70 l9 47 -1262 0 -1263 0 3 -132z"/>
</g>
</svg>
