<?xml version="1.0" standalone="no"?>
<!DOCTYPE svg PUBLIC "-//W3C//DTD SVG 20010904//EN"
 "http://www.w3.org/TR/2001/REC-SVG-20010904/DTD/svg10.dtd">
<svg version="1.0" xmlns="http://www.w3.org/2000/svg"
 width="501.000000pt" height="501.000000pt" viewBox="0 0 501.000000 501.000000"
 preserveAspectRatio="xMidYMid meet">
<metadata>
Created by potrace 1.11, written by Peter Selinger 2001-2013
</metadata>
<g transform="translate(0.000000,501.000000) scale(0.100000,-0.100000)"
fill="#000000" stroke="none">
<path d="M2580 4633 c-38 -26 -40 -29 -130 -158 -94 -137 -147 -202 -207 -258
l-42 -39 4 -101 c5 -98 8 -147 21 -283 6 -60 5 -61 -18 -57 -12 2 -32 -2 -42
-10 -17 -13 -25 -7 -96 77 -42 50 -84 92 -92 94 -9 2 -153 -83 -320 -189 -389
-246 -523 -330 -553 -349 -123 -76 -465 -295 -482 -309 -24 -20 -29 -42 -14
-69 5 -10 102 -54 220 -102 165 -66 209 -88 205 -100 -18 -43 -11 -62 88 -230
74 -125 111 -179 131 -188 31 -15 31 -15 17 -62 -19 -63 -50 -221 -57 -289
-12 -123 -6 -356 12 -434 3 -12 7 -33 9 -47 37 -205 130 -444 237 -603 21 -33
39 -63 39 -67 0 -5 3 -10 8 -12 4 -1 27 -29 51 -60 99 -131 265 -265 421 -340
161 -77 320 -111 520 -112 156 -1 237 8 365 41 33 8 67 16 75 18 77 16 264 97
395 170 67 37 224 140 235 154 3 3 30 25 60 47 54 40 236 216 294 285 93 109
216 302 274 429 51 112 103 278 117 375 3 23 8 52 10 65 10 48 7 266 -5 330
-7 36 -14 74 -16 86 -10 52 -59 186 -95 258 -56 113 -140 226 -244 331 -234
236 -514 389 -850 464 -49 11 -69 14 -191 30 -53 6 -244 5 -353 -2 -29 -2 -34
1 -36 21 -1 12 -12 33 -25 47 l-24 25 33 113 c19 61 48 169 67 239 18 69 40
140 48 156 33 64 115 108 184 98 53 -7 55 -8 287 -121 381 -186 571 -267 775
-329 198 -60 306 -74 380 -49 93 31 113 79 57 135 -40 40 -409 225 -922 463
-198 92 -378 176 -401 187 -22 10 -90 59 -150 109 -109 90 -190 139 -229 139
-11 0 -32 -8 -45 -17z m406 -1417 c12 -2 37 -7 55 -10 63 -10 213 -53 289 -84
151 -60 274 -134 400 -238 231 -191 362 -400 405 -649 13 -74 13 -242 0 -335
-23 -170 -137 -433 -262 -610 -133 -186 -373 -405 -588 -535 -469 -284 -993
-303 -1351 -49 -195 138 -373 399 -461 674 -64 202 -86 450 -58 663 22 163 44
195 259 372 27 22 54 45 60 50 6 6 38 32 71 60 33 27 62 52 65 55 3 3 73 61
155 130 190 158 182 151 235 196 46 39 97 82 219 184 161 135 179 142 356 135
72 -2 140 -6 151 -9z"/>
<path d="M2982 2994 c-70 -18 -103 -36 -94 -51 4 -6 54 -21 112 -33 278 -57
469 -203 590 -450 22 -47 47 -91 55 -99 40 -40 40 133 1 262 -47 155 -160 290
-283 338 -111 44 -282 59 -381 33z"/>
<path d="M1526 1932 c-16 -3 -17 -16 -15 -115 7 -258 74 -488 207 -712 131
-220 332 -381 542 -437 193 -50 414 -41 635 28 225 70 478 225 671 411 194
189 315 364 398 578 33 87 70 234 60 244 -5 5 -2471 8 -2498 3z"/>
</g>
</svg>
