<svg version="1" xmlns="http://www.w3.org/2000/svg" width="668" height="668" viewBox="0 0 501.000000 501.000000"><path d="M258 37.7c-3.8 2.6-4 2.9-13 15.8-9.4 13.7-14.7 20.2-20.7 25.8l-4.2 3.9.4 10.1c.5 9.8.8 14.7 2.1 28.3.6 6 .5 6.1-1.8 5.7-1.2-.2-3.2.2-4.2 1-1.7 1.3-2.5.7-9.6-7.7-4.2-5-8.4-9.2-9.2-9.4-.9-.2-15.3 8.3-32 18.9-38.9 24.6-52.3 33-55.3 34.9-12.3 7.6-46.5 29.5-48.2 30.9-2.4 2-2.9 4.2-1.4 6.9.5 1 10.2 5.4 22 10.2 16.5 6.6 20.9 8.8 20.5 10-1.8 4.3-1.1 6.2 8.8 23 7.4 12.5 11.1 17.9 13.1 18.8 3.1 1.5 3.1 1.5 1.7 6.2-1.9 6.3-5 22.1-5.7 28.9-1.2 12.3-.6 35.6 1.2 43.4.3 1.2.7 3.3.9 4.7 3.7 20.5 13 44.4 23.7 60.3 2.1 3.3 3.9 6.3 3.9 6.7 0 .5.3 1 .8 1.2.4.1 2.7 2.9 5.1 6 9.9 13.1 26.5 26.5 42.1 34 16.1 7.7 32 11.1 52 11.2 15.6.1 23.7-.8 36.5-4.1 3.3-.8 6.7-1.6 7.5-1.8 7.7-1.6 26.4-9.7 39.5-17 6.7-3.7 22.4-14 23.5-15.4.3-.3 3-2.5 6-4.7 5.4-4 23.6-21.6 29.4-28.5 9.3-10.9 21.6-30.2 27.4-42.9 5.1-11.2 10.3-27.8 11.7-37.5.3-2.3.8-5.2 1-6.5 1-4.8.7-26.6-.5-33-.7-3.6-1.4-7.4-1.6-8.6-1-5.2-5.9-18.6-9.5-25.8-5.6-11.3-14-22.6-24.4-33.1-23.4-23.6-51.4-38.9-85-46.4-4.9-1.1-6.9-1.4-19.1-3-5.3-.6-24.4-.5-35.3.2-2.9.2-3.4-.1-3.6-2.1-.1-1.2-1.2-3.3-2.5-4.7l-2.4-2.5 3.3-11.3c1.9-6.1 4.8-16.9 6.7-23.9 1.8-6.9 4-14 4.8-15.6 3.3-6.4 11.5-10.8 18.4-9.8 5.3.7 5.5.8 28.7 12.1 38.1 18.6 57.1 26.7 77.5 32.9 19.8 6 30.6 7.4 38 4.9 9.3-3.1 11.3-7.9 5.7-13.5-4-4-40.9-22.5-92.2-46.3-19.8-9.2-37.8-17.6-40.1-18.7-2.2-1-9-5.9-15-10.9-10.9-9-19-13.9-22.9-13.9-1.1 0-3.2.8-4.5 1.7zm40.6 141.7c1.2.2 3.7.7 5.5 1 6.3 1 21.3 5.3 28.9 8.4 15.1 6 27.4 13.4 40 23.8 23.1 19.1 36.2 40 40.5 64.9 1.3 7.4 1.3 24.2 0 33.5-2.3 17-13.7 43.3-26.2 61-13.3 18.6-37.3 40.5-58.8 53.5-46.9 28.4-99.3 30.3-135.1 4.9-19.5-13.8-37.3-39.9-46.1-67.4-6.4-20.2-8.6-45-5.8-66.3 2.2-16.3 4.4-19.5 25.9-37.2 2.7-2.2 5.4-4.5 6-5 .6-.6 3.8-3.2 7.1-6 3.3-2.7 6.2-5.2 6.5-5.5.3-.3 7.3-6.1 15.5-13 19-15.8 18.2-15.1 23.5-19.6 4.6-3.9 9.7-8.2 21.9-18.4 16.1-13.5 17.9-14.2 35.6-13.5 7.2.2 14 .6 15.1.9z"/><path d="M298.2 201.6c-7 1.8-10.3 3.6-9.4 5.1.4.6 5.4 2.1 11.2 3.3 27.8 5.7 46.9 20.3 59 45 2.2 4.7 4.7 9.1 5.5 9.9 4 4 4-13.3.1-26.2-4.7-15.5-16-29-28.3-33.8-11.1-4.4-28.2-5.9-38.1-3.3zM152.6 307.8c-1.6.3-1.7 1.6-1.5 11.5.7 25.8 7.4 48.8 20.7 71.2 13.1 22 33.2 38.1 54.2 43.7 19.3 5 41.4 4.1 63.5-2.8 22.5-7 47.8-22.5 67.1-41.1 19.4-18.9 31.5-36.4 39.8-57.8 3.3-8.7 7-23.4 6-24.4-.5-.5-247.1-.8-249.8-.3z"/></svg>