<?xml version="1.0" encoding="utf-8"?>
<!-- Generator: Adobe Illustrator 16.0.0, SVG Export Plug-In . SVG Version: 6.00 Build 0)  -->
<!DOCTYPE svg PUBLIC "-//W3C//DTD SVG 1.1//EN" "http://www.w3.org/Graphics/SVG/1.1/DTD/svg11.dtd">
<svg version="1.1" id="Layer_1" xmlns="http://www.w3.org/2000/svg" xmlns:xlink="http://www.w3.org/1999/xlink" x="0px" y="0px"
	 width="334.536px" height="334.9px" viewBox="0 0 334.536 334.9" enable-background="new 0 0 334.536 334.9" xml:space="preserve">
<g>
	<path d="M175.645,17.358c-1.236,0.407-2.42,0.983-3.604,1.536c-7.568,3.552-15.528,4.543-23.809,3.943
		c-4.719-0.342-9.462-0.299-14.195-0.426c-3.496-0.092-11.147,3.229-11.617,3.836c-0.287,0.373-0.35,0.956-0.402,1.455
		c-0.055,0.519,1.248,1.194,1.848,0.914c5.364-2.526,10.993-3.417,16.877-2.803c1.309,0.138,13.93,0.326,18.896-0.154
		c4.983-0.483,9.851-1.709,14.377-3.939c1.129-0.557,2.071-1.551,2.979-2.469c0.235-0.242,0.203-1.061-0.027-1.379
		C176.723,17.539,176.008,17.239,175.645,17.358z"/>
	<path d="M290.898,160.398c-0.369-4.381-0.758-8.578-3.325-12.307c-0.625-0.906-1.345-1.748-2.136-2.516
		c-1.142-1.105-1.015-1.49-0.944-3.16c0.104-2.53,0.207-5.059,0.312-7.588c0.457-11.09,1.159-22.215,1.221-33.312
		c0.052-9.055-0.478-18.489-5.739-26.204c-1.24-1.815-2.691-3.452-4.289-4.961c-1.438-1.352-3.228-2.788-4.054-4.619
		c-0.87-1.943-1.01-4.286-1.601-6.333c-0.512-1.766-1.129-3.502-1.879-5.18c-2.934-6.597-7.895-11.885-14.182-15.414
		c-1.836-1.029-3.908-1.65-5.721-2.68c-1.912-1.083-1.621-3.106-2.184-4.98c-1.133-3.786-4.09-6.475-7.287-8.598
		c-4.01-2.658-8.514-4.451-13.201-5.492c-2.408-0.533-4.805-0.844-7.264-0.979c-2.515-0.139-4.998-1.105-7.402-1.809
		c-5.076-1.479-10.057-3.314-15.17-4.654c-4.908-1.286-9.891-1.773-14.828-2.803c-2.521-0.526-4.896-1.598-7.434-2.12
		c-2.396-0.495-4.832-0.769-7.273-0.898c-5.269-0.284-10.664-0.139-15.931,0.114c-4.92,0.238-9.949,0.639-14.762,1.729
		c-4.957,1.125-9.642,3.252-14.051,5.748c-4.242,2.404-8.26,5.1-12.748,7.062c-4.509,1.966-9.382,2.508-13.879,4.316
		c-2.435,0.979-2.861,2.88,0.27,2.664c2.357-0.161,4.712-0.41,7.035-0.829c4.834-0.872,9.088-2.661,13.381-4.991
		c8.76-4.762,16.861-10.039,27.015-11.16c5.13-0.564,10.388-0.353,15.544-0.476c5.257-0.123,10.487-0.392,15.66,0.772
		c5.063,1.14,10.079,2.334,15.176,3.359c4.838,0.972,13.459,2.938,17.668,5.633c-0.813,1.303-11.597,0.661-9.535,3.35
		c0.978,1.267,3.009,0.975,4.367,0.913c2.185-0.096,4.373-0.207,6.556-0.399c8.151-0.729,15.645-1.893,23.45,1.398
		c3.129,1.316,6.429,3.125,8.812,5.579c1.103,1.137,2.55,2.685,2.851,4.281c0.326,1.732-0.854,2.347-1.326,3.794
		c-1.153,3.537,4.916,3.1,6.789,3.545c2.949,0.695,5.56,2.327,7.81,4.32c2.58,2.284,4.783,5.011,6.629,7.918
		c1.623,2.561,3.973,6.07,4.479,9.108c0.322,1.935-1.527,2.614-1.734,4.27c-0.139,1.103,2.588,3.007,3.566,3.929
		c2.615,2.465,5.357,4.834,7.465,7.772c3.99,5.56,5.344,12.299,5.744,19.022c0.484,8.172-0.211,16.555-0.438,24.734
		c-0.211,7.554-0.088,15.164-1.433,22.621c-0.516,2.868-1.502,5.66-3.771,7.614c-1.471,1.268-2.891,2.531-3.424,4.16
		c-0.119-0.73-0.293-1.418-0.564-2.006c-0.461-1.006-2.113-2.834-3.191-1.521c-0.779,0.949,0.242,2.724,0.537,3.679
		c1.303,3.959-0.74,8.405-0.943,12.385c-0.104,2.061,1.164,2.227,2.056,0.434c0.752-1.516,1.301-3.125,1.646-4.781
		c0.318-1.532,0.621-3.575,0.644-5.563c1.688-1.608,3.34-3.223,5.168-4.682c1.187-0.943,3.444-3.359,5.045-3.352
		c3.821,0.02,3.955,9.811,4.371,12.391c0.707,4.417-0.043,8.788-2.293,12.665c-2.438,4.201-5.375,7.89-7.334,12.394
		c-2.099,4.821-3.998,9.644-6.287,14.389c-1.896,3.938-4.203,7.31-8.679,8.474c-0.646,0.168-2.952,0.461-2.813,1.449
		c0.101,0.698,0.621,1.204,1.214,1.516c1.866,0.975,3.998,0.127,5.532-0.992c3.69-2.691,6.211-6.113,8.037-10.26
		c2.162-4.904,12.326-23.166,14.496-27.723C292.625,169.896,291.312,165.309,290.898,160.398z"/>
	<path d="M47.155,166.985c-0.009,0.129,0.014,0.252,0.01,0.379C47.211,166.788,47.252,166.04,47.155,166.985z"/>
	<path d="M114.549,131.183c-1.299-0.021-2.588,0.185-3.859,0.44c-2.708,0.551-5.341,1.38-8.113,1.561
		c-3.05,0.199-5.926-0.718-8.943,0.088c-2.527,0.672-4.809,1.901-7.131,3.057c-4.31,2.145-6.943,4.531-8.895,9.002
		c-0.726,1.666-2.166,3.802-0.27,5.168c1.548,1.113,4.436,0.055,5.984-0.655c2.385-1.095,4.008-2.804,6.772-3.114
		c1.146-0.131,2.37,0.184,3.464-0.23c1.01-0.385,1.713-1.305,2.527-1.967c2.181-1.77,4.031-1.615,6.658-1.523
		c2.657,0.093,5.022-1.501,7.668-1.221c2.98,0.313,5.356,1.527,8.426,0.799c2.656-0.635,5.049-0.762,7.726-0.085
		c2.738,0.69,5.472,1.755,8.052,2.896c2.68,1.188,4.359,0.885,6.908-0.503c0.833-2.181,3.165-5.909,2.461-8.313
		c-0.779-2.668-4.324-3.463-6.597-4.246c-2.974-1.021-5.783-2.066-8.981-2.031c-3.158,0.038-6.049,1.82-9.156,1.654
		C117.657,131.859,116.185,131.207,114.549,131.183z M83.134,146.156c0.722-1.053,0.729-0.062,1.163,0.237
		C83.907,146.316,83.522,146.236,83.134,146.156z M127.42,134.033c2.484-0.53,4.056-0.188,6.455,0.549
		c1.463,0.449,5.177,0.918,5.998,2.234c0.627,0.998-0.438,4.051-0.976,5.131c-0.587,1.174-1.467,1.174-2.728,0.799
		c-0.979-0.293-1.93-0.754-2.879-1.125c-1.92-0.758-3.859-1.49-5.888-1.896c-1.862-0.373-4.186-0.727-6.079-0.423
		c-2.074,0.334-3.721,1.183-5.902,0.897c-1.881-0.244-3.747-1.75-5.609-1.701c-1.693,0.047-3.679,1.338-5.51,1.568
		c-2.085,0.264-4.316-0.416-6.336,0.088c-1.786,0.444-2.823,1.98-4.397,2.817c-1.847,0.983-3.651,0.931-5.668,0.995
		c-1.651,0.055-2.94,0.771-3.352,2.484h-0.005v-0.004c0.005,0,0.005,0.004,0.005,0.004c0.272-1.142-0.05-0.754-0.123-0.373
		c-0.787-2.403-0.995-3.545,1.521-5.012c2.143-1.252,4.301-2.473,6.521-3.582c4.554-2.273,9.5-1.061,14.441-1.789
		c2.358-0.351,4.854-1.049,7.221-1.125c2.089-0.07,4.119,0.609,6.205,0.617C122.717,135.199,125.11,134.527,127.42,134.033z"/>
	<path d="M188.07,128.031c-4.598,0.871-7.315,2.558-9.25,6.838c-0.86,1.906-2.78,4.021-1.334,6.103
		c1.63,2.339,3.976,1.617,6.13,0.646c2.454-1.108,4.776-1.598,7.407-2.092c2.192-0.416,3.431-2.074,5.502-2.611
		c2.345-0.604,5.312,0.38,7.771,0.275c2.35-0.1,4.69-0.398,7.047-0.296c1.59,0.073,3.109,0.769,4.635,0.86
		c0.926,0.059,1.773-0.364,2.699-0.473c2.445-0.287,4.826,0.496,7.191,0.986c2.495,0.52,5.062,0.825,7.465,1.73
		c2.403,0.906,4.475,1.211,7.004,1.63c0.826-0.343,3.186-0.769,3.617-1.667c0.432-0.895-0.355-1.985-0.859-2.653
		c-1.834-2.427-4.668-4.351-6.973-6.31c-1.105-0.94-2.189-2.077-3.396-2.885c-1.41-0.939-3.172-0.744-4.892-0.81
		c-3.024-0.11-6.03-0.726-9.047-0.761c-2.651-0.03-5.176,0.941-7.824,0.769c-2.496-0.161-4.676-1.421-7.123-1.725
		c-2.84-0.354-5.575,0.515-8.33,1.063C193.036,127.148,190.545,127.562,188.07,128.031z M208.342,130.255
		c2.238,0.71,3.992,0.541,6.242,0.046c4.371-0.956,8.494,0.156,12.838,0.596c1.121,0.11,2.897-0.076,3.922,0.379
		c0.77,0.346,1.648,1.637,2.27,2.231c0.59,0.567,3.725,2.757,3.479,3.651c-0.508,1.854-3.903-0.642-4.61-1.037
		c-1.844-1.036-3.08-0.245-5-0.383c-1.683-0.119-3.137-1.071-4.741-1.494c-1.894-0.496-3.609,0.246-5.507,0.41
		c-2.455,0.211-4.649-0.342-7.055-0.66c-2.128-0.284-4.171,0.195-6.281,0.318c-2.187,0.131-4.235-0.557-6.397-0.533
		c-2.043,0.022-3.51,0.787-5.215,1.801c-1.847,1.103-3.252,0.572-5.232,1.014c-1.859,0.415-3.469,1.57-4.916,2.754
		c-0.051-0.384-0.072-0.703-0.08-0.994c-0.154-3.104,1.057-5.541,4.328-6.467c4.898-1.387,10.127-1.992,15.125-2.93
		C203.973,128.5,205.988,129.51,208.342,130.255z"/>
	<path d="M197.877,59.199c1.039,1.628,1.662,2.55,3.479,3.479c1.77,0.906,3.789,1.398,5.676,2.013
		c4.242,1.382,8.498,2.734,12.756,4.078c3.564,1.125,7.201,1.413,10.902,1.82c3.637,0.399,7.418,1.04,11.082,0.833
		c1.48-0.084,9.039-1.029,7.496-3.943c-0.742-1.402-2.957-0.688-4.129-0.457c-1.812,0.36-3.637,0.511-5.479,0.399
		c-1.943-0.119-3.812-0.661-5.75-0.783c-1.632-0.104-3.261-0.158-4.89-0.335c-3.506-0.376-6.974-1.071-10.367-2.023
		c-6.42-1.801-12.44-3.928-19.026-4.85C199.213,59.356,198.654,59.279,197.877,59.199z"/>
	<path d="M90.265,63.853c-0.165-1.045-0.562-3.706-2.269-2.484c-1.156,0.825-1.748,4.281-2.244,5.656
		c-1.543,4.258-3.061,8.521-4.635,12.768C78.601,86.582,75.58,92.91,70.992,98.56c-1.261,1.552-2.467,3.134-3.634,4.755
		c-0.542,0.752-2.688,2.875-2.149,3.904c0.959,1.839,5.963-3.859,6.781-4.716c4.77-5,8.155-10.664,10.701-17.058
		C85.458,78.51,88.833,71.179,90.265,63.853z"/>
	<path d="M45.018,90.871c1.275-7.185,4.708-12.906,8.087-19.234c0.741-1.39,2.515-3.644,2.228-5.311
		c-0.254-1.471-1.274-1.271-2.228-0.591c-2.496,1.789-4.097,5.652-5.583,8.286c-3.628,6.443-6.861,13.168-7.186,20.675
		c-0.148,3.514,0.193,7.031,0.754,10.5C41.601,108.355,43.644,98.605,45.018,90.871z"/>
	<path d="M49.139,63.599c0.775,0.073,0.732,0.023,0.514-0.026c3.241-0.081,6.371-3.648,8.66-5.519
		c2.93-2.396,5.791-4.903,8.299-7.749c2.165-2.462,4.162-5.042,6.443-7.403c2.369-2.458,5.038-4.562,7.465-6.95
		c0.641-0.63,5.648-5.733,2.102-5.542c-1.299,0.073-2.75,1.782-3.717,2.554c-1.279,1.021-2.543,2.062-3.779,3.13
		c-5.279,4.562-9.484,10.088-14.441,14.969c-2.322,2.288-4.762,4.462-7.334,6.47c-1.424,1.114-3.041,2.059-4.297,3.368
		C47.772,62.236,47.538,62.632,49.139,63.599z"/>
	<path d="M239.223,47.503c-2.791-0.733-6.582,0.38-9.457,0.43c-6.506,0.111-12.984-1.141-18.895-3.897
		c1.354,0.634,5.528,2.596-0.074-0.031c-0.438-0.207-0.375-0.176-0.078-0.042c-2.357-1.125-5.068-3.007-7.689-2.964
		c1.586,5.668,9.65,8.006,14.781,9.442c6.031,1.689,12.363,2.02,18.52,0.829c1.308-0.253,3.275-0.33,4.039-1.647
		C240.995,48.543,240.411,47.813,239.223,47.503z"/>
	<path d="M210.872,44.039c-0.06-0.027-0.105-0.05-0.152-0.073c0.025,0.012,0.053,0.026,0.08,0.042
		C210.822,44.015,210.85,44.027,210.872,44.039z"/>
	<path d="M231.866,58.557c-3.546-0.479-6.98-1.429-10.353-2.61c-3.394-1.188-6.714-2.911-10.322-2.911
		c0.343,2.834,4.334,4.389,6.595,5.511c2.934,1.455,6.03,2.564,9.207,3.355c3.286,0.814,6.692,1.367,10.079,1.395
		c2.988,0.022,7.878-0.081,10.431-1.882c0.897-0.634,1.561-1.832,0.592-2.638c-1.105-0.922-4.145-0.224-5.422-0.146
		C239.027,58.849,235.51,59.05,231.866,58.557z"/>
	<path d="M101.754,44.876c-2.899,2.12-6.041,3.752-9.243,5.356c-3.337,1.675-6.712,3.271-10.045,4.95
		c-1.532,0.771-3.062,1.559-4.577,2.365c-1.701,0.906-0.361,2.635,0.307,2.423c1.532-0.491,3.062-1.01,4.574-1.555
		c3.268-1.183,6.48-2.508,9.619-4.001c3.141-1.494,6.205-3.161,9.154-5.004c2.101-1.31,6.451-3.71,6.578-6.612
		C108.267,39.48,102.704,44.184,101.754,44.876z"/>
	<path d="M271.521,181.499c-2.539,1.959-2.724,5.15-3.308,8.139c-0.211,1.082-1.121,3.209-0.026,3.896
		c1.397,0.875,1.929-1.275,2.459-2.268c1.42-2.65,2.211-5.611,4.312-7.854c1.961-2.093,3.633-3.992,4.74-6.69
		c0.951-2.318,1.486-4.775,1.955-7.234c0.059-0.283,0.119-0.617,0.203-1.057c-0.188-1.3-0.119-2.825-1.625-3.316
		c-0.979-0.318-2.35,0.219-2.812,1.193c-0.522,1.1,0.47,2.635,0.355,3.922c-0.131,1.516-0.76,3.026-1.26,4.453
		C275.488,177.622,273.971,179.606,271.521,181.499z"/>
	<path d="M55.833,168.579c-0.461-0.973-1.836-1.514-2.815-1.195c-1.505,0.492-1.437,2.023-1.624,3.318
		c0.081,0.436,0.146,0.766,0.204,1.055c0.468,2.457,1.002,4.914,1.955,7.234c1.108,2.699,2.78,4.6,4.741,6.693
		c2.102,2.237,2.893,5.198,4.312,7.852c0.53,0.986,1.061,3.141,2.458,2.266c1.095-0.688,0.185-2.812-0.026-3.895
		c-0.588-2.988-0.772-6.182-3.307-8.141c-2.449-1.89-3.967-3.877-4.996-6.816c-0.499-1.426-1.129-2.939-1.259-4.455
		C55.364,171.211,56.351,169.676,55.833,168.579z"/>
	<path d="M70.267,138.164c-0.022,0.854-0.472,3.998,0.042,4.693c0.727,0.985,1.501-0.174,1.852-0.783
		c2.953-5.131,2.496-12.478,2.625-18.188c-0.123-3.371,0.092-6.904-0.438-10.24c-0.157-0.99-2.039-6.979-3.562-4.214
		c-0.519,0.94,0.168,3.33,0.279,4.315c0.174,1.578,0.312,3.15,0.288,4.742c-0.046,3.299-0.292,6.605-0.499,9.896
		C70.651,131.644,70.364,134.904,70.267,138.164z"/>
	<path d="M243.607,84.213C239.146,84.304,246.432,84.298,243.607,84.213L243.607,84.213z"/>
	<path d="M251.032,80.073c-1.841-0.68-4.271,0.269-6.201,0.261c-2.062-0.011-4.105-0.349-6.07-0.959
		c-1.807-0.562-4.352-2.362-6.291-1.602c-2.02,0.791-0.469,2.538,0.605,3.355c3.034,2.305,6.778,3.161,10.536,3.088
		c2.17,0.062,4.367-0.265,6.332-1.206C251.195,82.412,253.167,80.86,251.032,80.073z"/>
	<path d="M243.424,108.83c1.479,1.426,2.469-1.877,2.961-2.891c1.836-3.768,3.484-7.994,3.502-12.239
		c0.008-1.65,0.262-4.492-1.387-5.545c-1.908-1.217-2.031,1.271-2.105,2.512c0.734,4.428-0.93,8.658-2.416,12.74
		C243.504,104.715,242.23,107.682,243.424,108.83z"/>
	<path d="M44.65,124.967c-1.041,1.189,0.165,4.766,0.365,6.201c0.28,1.988,0.562,3.982,0.864,5.968
		c0.326,2.14,0.453,4.521,1.294,6.528c0.737,1.759,1.354,3.785,3.149,2.181c-0.304-4.37-1.148-8.729-1.89-13.044
		C48.271,131.841,47.177,122.07,44.65,124.967z"/>
	<path d="M45.45,102.349c-1.398,0.74-1.552,4.509-1.879,5.925c-0.449,1.959-0.898,3.918-1.328,5.883
		c-0.461,2.117-1.195,4.383-1.125,6.56c0.061,1.905-0.088,4.021,2.162,3.164c1.278-4.188,2.051-8.56,2.902-12.856
		C46.372,110.059,48.843,100.549,45.45,102.349z"/>
	<path d="M250.988,104.449c-0.771,2.144-0.752,4.854-1.315,7.097c-1.113,4.424-2.998,8.612-4.06,13.032
		c3.041-2.741,2.89-2.76,2.06-2.076c1.899-2.146,3.438-4.598,4.512-7.27c1.086-2.703,2.865-7.754,1.836-10.648
		C253.396,102.841,251.627,102.683,250.988,104.449z"/>
	<path d="M260.532,148.549C260.497,148.896,260.484,149.035,260.532,148.549L260.532,148.549z"/>
	<path d="M260.639,147.457c-0.008,0.089-0.021,0.195-0.035,0.334c-0.016,0.174-0.029,0.312-0.041,0.435
		C260.588,147.961,260.616,147.673,260.639,147.457z"/>
	<path d="M253,141.633c1.037-1.475,1.875-3.076,2.508-4.762c1.088-2.896,2.424-7.661,1.545-10.744
		c-0.322-1.133-1.764-3.322-3.115-2.116c-0.975,0.872-0.188,2.903-0.029,3.959c0.729,4.374-2.145,8.722-3,12.876
		C250.467,142.996,251.775,143.371,253,141.633z"/>
	<path d="M262.459,191.606c0.858-0.691,1.625-1.494,2.283-2.379c1.135-1.521,2.729-4.103,2.733-6.062
		c0.004-0.724-0.474-2.254-1.476-1.774c-0.723,0.35-0.604,1.68-0.69,2.327c-0.313,2.699-2.742,4.773-3.955,7.072
		C260.734,191.978,261.438,192.424,262.459,191.606z"/>
	<path d="M261.372,182.161c2.106,0.311,3.057-5.988,3.231-7.344c0.119-0.912,0.356-2.639,0.219-4.193
		c0.005-0.998-0.021-1.801-0.018-2.064c0.018-1.537-1.419-8.887-1.812-9.79c-0.728-1.654-1.646-3.217-2.691-4.688
		c-0.5-0.703-0.672-1.092-1.096-1.223c0.729-1.604,1.229-3.312,1.401-5.067c0.187-1.854-1.683-6.025-3.812-3.222
		c-0.914,1.201-0.361,3.07-0.478,4.465c-0.14,1.697-0.588,3.299-1.228,4.869c-0.106,0.262-0.321,0.727-0.537,1.248
		c-1.75,1.299-3.418,2.719-5.26,3.892c-0.213,0.18-0.594,0.43-1.271,0.778c-1.854-0.553-4.16-0.875-5.883-1.752
		c-1.423-0.721-2.007-2.391-2.813-3.776c-1.697-2.908-4.595-4.429-7.691-5.45c-4.061-1.336-8.342-1.801-12.6-1.688
		c-2.855,0.078-14.834-0.947-15.431,2.728c5.242,0.411,17.106,0.868,22.271,1.95c4.142,0.871,8.943,1.646,11.105,5.73
		c2.453,4.635,0.855,9.395,1.125,14.299c0.143,2.621-0.15,5.248-0.73,7.807c-0.274,1.213-0.612,2.414-1.002,3.6
		c-0.514,1.572-0.584,1.576,0.229,2.951c2.66-2.486,4.769-5.49,4.724-9.266c-0.017-1.383-0.132-11.363,0.51-11.406
		c2.408-0.146,7.428,0.805,8.146-0.004c0.496-0.561,1.261-1.029,1.836-1.52c1.177-1.014,2.312-2.079,3.582-2.973
		c0.72-0.506,1.459-0.971,2.259-1.34c1.067-0.492,1.291-0.76,2.026,0.02C260.723,160.836,259.613,181.903,261.372,182.161z"/>
	<path d="M258.096,217.506c0.09,0.136,0.246,0.377,0.357,0.556C258.377,217.942,258.273,217.776,258.096,217.506z"/>
	<path d="M258.454,218.058C258.646,218.356,258.588,218.267,258.454,218.058L258.454,218.058z"/>
	<path d="M258.055,217.446L258.055,217.446c0.02,0.025,0.021,0.039,0.041,0.061C258.086,217.489,258.066,217.458,258.055,217.446z"
		/>
	<path d="M258.055,217.442C258.004,217.366,258.02,217.385,258.055,217.442c-0.4-0.611-1.73-0.629-2.34-0.84
		c2.666,18.047-4.842,36.451-5.99,39.535c-2.23,5.995-5.689,12.055-9.262,17.354c-1.896,2.813-3.912,5.562-6.006,8.231
		c-0.982,1.26-9.906,13.904-11.801,14.004c1.784-3.354,8.704-14.641,10.227-18.131c1.045-2.4,2.604-5.897-0.521-7.443
		c-4.578,8.744-9.555,17.027-14.893,25.334c-5.084,7.914-10.727,16.247-17.908,22.452c-3.131,2.702-6.445,3.985-10.453,4.737
		c-4.682,0.881-9.029,2.715-13.859,2.854c-4.733,0.135-9.539-0.238-14.217-0.931c-4.471-0.659-9.521-1.407-13.66-3.309
		c-1.97-0.906-3.689-2.463-5.426-3.748c-2-1.481-3.988-2.984-5.925-4.555c-3.667-2.988-7.192-4.988-10.444-8.414
		c-3.507-3.697-6.302-8.674-9.127-12.926c-2.742-4.123-5.461-8.265-8.164-12.414c-5.35-8.213-8.732-17.318-13.572-25.812
		c-0.537-0.945-2.391-5.326-3.463-5.299c-2.153,0.057,0.354,4.5,0.664,5.299c1.764,4.496,3.5,9.012,5.526,13.398
		c4.085,8.848,9.513,16.762,14.604,25.029c1.205,1.953,2.596,3.897,3.629,5.948c0.203,0.406,0.867,1.562,0.061,1.982
		c-0.633,0.329-2.254-1.494-2.58-1.812c-3.397-3.297-6.332-7.025-9.484-10.559c-18.409-20.605-21.332-51.84-22.25-57.252
		c-0.269-3.654-0.521-7.312-0.986-10.951c-0.641-5.006-1.812-9.879-2.784-14.826c-0.215-1.094-0.407-2.195-0.61-3.295
		c-0.287-2.227-0.553-4.453-0.782-6.686c0.229-0.697,0.825-0.947,2.165-0.029c3.83,2.625,7.707,4.992,12.228,6.24
		c9.347,2.584,20.015,2.715,29.556,1.328c4.187-0.607,8.68-1.301,12.09-4.008c3.451-2.74,5.666-7.359,7.599-11.226
		c2.131-4.271,3.667-8.793,4.612-13.476c0.211-1.039,0.392-2.088,0.545-3.141c0.195-1.352,0.342-1.682,1.387-2.58
		c0.583-0.504,1.881-1.291,1.908-1.988c0.031-0.766-0.76-1.355-1.294-1.738c-1.595-1.137-2.3-1.875-3.329-3.633
		c-1.057-1.806-2.408-3.269-4.094-4.517c-1.459-1.08-3.088-1.858-4.908-2.043c-2.415-0.246-4.416-0.729-6.743-1.463
		c-4.535-1.429-9.276-2.542-14.021-2.944c-2.115-0.182-4.354-0.318-6.465,0.016c-2.271,0.359-2.984,1.713-4.721,2.938
		c-3.145,2.215-7.914,1.805-11.566,2.135c-4.535,0.41-9.178,0.219-13.229,2.529c-1.725,0.984-3.057,2.385-4.646,3.533
		c-0.676-3.287-1.043-6.62-2.817-9.596c-0.933,0.807-1.739,1.226-1.905,2.504c-0.134,1.045,0.23,2.404,0.389,3.422
		c0.114,0.74,0.271,1.475,0.418,2.207c-0.549,2.83-1.172,5.969-0.293,8.598c0.961,2.881,1.317,5.969,0.926,8.982
		c-0.166,1.264-0.461,2.512-0.883,3.709c-0.379,1.071-0.469,1.185-0.338,2.289c0.101,0.83,0.508,1.748,0.737,2.549
		c0.986,3.418,1.97,6.832,2.938,10.258c0.125,0.441,0.252,0.888,0.384,1.328c0.444,4.162,0.909,8.326,1.348,12.488
		c0.146,1.407,1.97,6.819-0.853,6.12c-1.44-0.356-1.936-2.245-2.584-3.37c-2.75-4.769-4.881-9.943-8.068-14.439
		c-3.463-4.893-6.505-10.045-9.449-15.26c-2.582-4.569-6.24-9.312-6.105-14.781c-0.042,0.539-0.084,0.923-0.012-0.379
		c0.261-2.424-0.031-6.229,1.75-8.161c0.719-0.779,1.666-1.133,2.707-0.938c1.19,0.223,1.885,1.434,3.006,1.656
		c0.404,0.08,0.715,0.084,0.953,0.032c0.326,1.058,0.691,2.048,1.033,2.869c0.649,1.562,1.486,3.041,2.512,4.39
		c1.209,1.594,2.427,1.197,1.936-0.812c-0.945-3.869-3.781-7.854-3.245-11.988c0.111-0.995,0.783-2.93-0.161-3.717
		c-1.31-1.087-2.584,1.019-2.854,2.089c-0.25,1.006-0.234,2.196-0.073,3.428c-0.265-0.311-0.526-0.568-0.737-0.713
		c-2.135-1.467-4.57-1.302-6.742,0.008c-2.604,1.566-2.851,4.668-3.303,7.41c-0.492,2.958-1.068,5.967-0.318,8.924
		c0.752,2.969,2.676,5.588,4.197,8.203c1.762,3.022,3.51,6.059,5.303,9.063c3.029,5.092,6.39,9.99,9.289,15.16
		c2.729,4.869,4.593,10.08,8.099,14.5c0.979,1.235,1.854,2.062,3.103,2.905c0.812,0.55,1.43,1.007,1.928,1.882
		c1.076,1.891,1.269,4.481,1.697,6.565c0.369,1.795,0.741,3.588,1.114,5.385c0.115,3.011,5.153,25.222,6.604,28.267
		c1.514,3.178,3.046,6.347,4.662,9.474c2.918,5.649,6.867,10.522,10.227,15.932c6.708,10.801,22.537,18.711,23.508,19.604
		c4.17,3.82,10.625,8.896,15.36,12.101c9.838,6.657,21.508,8.569,33.192,8.463c11.653-0.105,25.387-2.07,33.575-11.222
		c3.361-3.756,36.593-27.582,46.75-58.19c1.113-3.353,8.714-25.17,7.767-33.07C259.57,223.086,260.027,220.487,258.055,217.442
		L258.055,217.442z M113.221,152.679c-4.846,2.209-4.846,2.209-8.227,1.756C107.284,152.195,109.899,151.916,113.221,152.679z
		 M75.309,181.049c-0.139-0.985-0.361-4.008-1.413-5.219c0.069-1.631,0.153-3.269,0.229-4.897c0.814,0.858,1.791,1.539,3.031,1.84
		c1.262-0.742-0.938-5.056-2.305-7.838c0.58-1.784,1.646-3.237,3.609-4.581c2.922-2.005,6.412-2.128,9.83-2.5
		c3.937-0.431,7.881-0.791,11.819-1.201c-0.206,1.319-0.126,1.942-0.983,3.018c-0.891,1.117-1.938,2.143-2.91,3.188
		c-1.786,1.917-3.502,3.868-5.207,5.852c1.375,0.07,2.047,0.412,3.232-0.367c1.084-0.711,2.077-1.598,3.062-2.432
		c0.96-0.814,5.506-4.178,6.438-4.035c2.146,0.329,2.243,2.878,3.18,3.048c3.138,0.562,6.375-0.021,9.555-0.174
		c3.184-0.152,6.371-0.449,9.504-1.047c1.417-0.273,2.055-0.48,3.012-1.779c0.897-1.222-0.246-4.399,0.567-5.097
		c1.604-1.375,8.037,2.31,9.258,3.308c1.824,1.49,2.412,3.441,2.558,5.724c0.207,3.268,0.314,6.619-0.262,9.854
		c-0.494,2.802-1.678,5.302-2.846,7.873c-1.307,2.879-2.393,6.228-4.212,8.824c-1.302,1.854-3.222,3.608-5.257,4.627
		c-2.649,1.323-5.829,0.688-8.663,1.319c-6.121,1.363-12.242,0.763-18.443,0.205c-6.083-0.547-12.215-1.721-17.625-4.686
		c-2.745-1.502-6.19-3.891-8.353-6.836C75.642,185.024,75.584,183.01,75.309,181.049z"/>
	<path d="M211.225,242.229c0.596-1.152,0.377-1.379,0.23-2.65c-2.285,0.83-4.564,1.664-6.853,2.492
		c0.067-0.062,0.135-0.123,0.207-0.18c-0.017,0.004-0.029,0.008-0.041,0.008c-0.013,0.012-0.022,0.021-0.035,0.039
		c-9.631,6.492-21.517,0.787-32.168,2.031c-2.502,0.288-4.758,1.448-7.283,1.702c-2.267,0.229-4.531,0.041-6.789-0.135
		c-5.149-0.404-10.445-1.076-15.61-0.879c-5.003,0.19-9.116,2.743-13.958,3.463c-2.723,0.401-5.506,0.262-8.19-0.322
		c-0.795-0.174-4.973-1.614-4.374,0.457c0.178,0.604,2.327,1.638,2.83,2.007c0.883,0.646,1.736,1.344,2.547,2.086
		c1.577,1.448,2.745,3.082,4.062,4.75c1.316,1.67,3.318,3.02,4.869,4.521c1.543,1.491,2.93,3.172,4.572,4.553
		c3.676,3.099,8.479,4.539,13.061,5.683c2.4,0.6,4.826,1.088,7.242,1.617c1.77,0.385,3.713,0.979,5.025-0.699
		c-3.095-1.332-6.193-2.734-9.466-3.578c-2.957-0.766-5.959-1.191-8.774-2.451c-5.271-2.357-10.08-7.564-13.193-12.375
		c1.747,1.24,3.168,2.381,5.261,3.148c2.085,0.768,4.04,1.836,5.979,2.914c3.916,2.174,8.521,4.709,13.06,5.123
		c4.315,0.395,8.863-1.16,13.125-1.744c4.399-0.604,9.03-0.383,13.362-1.297c3.816-0.806,7.656-3.015,11.015-4.953
		c1.908-1.105,3.802-2.289,5.422-3.795c1.394-1.295,2.484-3.025,3.992-4.185c1.164-0.892,2.903-1.729,2.834,0.291
		c-0.045,1.358-0.871,3.045-1.459,4.256c-1.758,3.604-5.006,5.552-8.34,7.537c-7.484,4.463-16.154,6.39-23.437,11.172
		c2.289,1.459,4.935-0.021,7.246-0.758c2.576-0.82,5.133-1.697,7.703-2.545c4.559-1.502,9.102-3.191,13.121-5.863
		c4.158-2.767,6.73-6.578,8.82-11.053c1.113-2.382,1.949-4.854,2.91-7.291C210.163,244.252,210.695,243.254,211.225,242.229z
		 M138.638,254.444c-1.044-0.422-2.957-1.613-2.776-2.949c0.215-1.59,2.838-1.742,3.997-2.074c0.3,0.15,0.435,0.242,0.507,0.312
		C142.743,251.479,142.236,255.899,138.638,254.444z M145.167,257.616c-2.52-0.596-2.332-2.676-2.539-4.85
		c0.322-1.781,0.807-4.83,3.464-3.804c1.862,0.724,2.922,3.427,2.788,5.271C148.718,256.487,147.527,258.172,145.167,257.616z
		 M159.858,260.745c-13.402,5.568-9.838-8.389-7.68-10.602c1.574-1.617,4.639-1.201,6.232,0.192
		C160.116,251.844,162.323,259.722,159.858,260.745z M164.965,260.288c-2.615-0.545-1.26-8.002,0.138-9.803
		c1.302-1.674,4.235-2.65,6.083-1.359C173.725,250.896,179.172,263.252,164.965,260.288z M183.984,253.231
		c-0.135,2.084-0.976,3.797-3.129,4.451c-1.147,0.348-2.644,0.567-3.668-0.193c-1.192-0.891-1.045-2.516-1.082-3.879
		c-0.069-2.322,0.299-4.529,2.883-4.994c3.449-0.619,4.777,0.91,5.027,4.146C183.977,255.235,183.969,254.03,183.984,253.231z
		 M189.111,255.274c-2.188,0.703-3.414-0.092-3.19-4.49c0.063-1.27,1.219-1.965,2.606-2.168c0.076,0,0.14-0.004,0.166-0.016
		c2.265-0.269,5.058,0.729,4.817,2.645C193.193,253.803,190.344,254.877,189.111,255.274z M204.602,242.075
		c0.004-0.004,0.008-0.008,0.012-0.01C204.613,242.067,204.609,242.071,204.602,242.075
		C204.605,242.075,204.602,242.075,204.602,242.075z"/>
	<path d="M222.295,158.689c-4.246-1.418-8.271-3.195-12.764-3.688c-2.218-0.242-4.337-0.911-6.539-1.21
		c-2.187-0.301-4.406-0.215-6.515-0.969c1.172-1.164,2.742-1.053,4.213-1.459c0.588-0.162,1.328-0.354,1.701-0.883
		c0.68-0.969-0.166-1.134-1.067-1.629c-3.066-1.689-7.479-0.115-10.744,0.445c-3.979,0.684-7.898,1.742-11.938,1.997
		c-2.759,0.173-5.207,0.541-7.017,2.853c-1.014,1.299-1.662,2.915-2.42,4.366c-0.651,1.252-1.172,3.228-2.285,4.172
		c-1.505,1.277-3.716-0.226-5.368,0.668c-1.271,0.689-1.091,2.058-0.027,2.744c1.114,0.721,2.369,0.902,3.349,1.906
		c0.91,0.933,1.418,2.127,1.732,3.375c0.879,3.498,1.416,7.258,2.83,10.595c1.429,3.37,4.289,5.809,6.896,8.27
		c1.52,1.43,3.059,2.826,4.602,4.225c1.342,1.217,2.535,2.361,4.209,0.848c-2.031-2.549-4.131-5.045-6.385-7.397
		c-1.107-1.156-2.244-2.276-3.428-3.354c-0.47-0.426-1.429-1.033-1.779-1.551c-0.408-0.596-0.51-1.772-0.699-2.453
		c-1.752-6.086-4.066-12.1-2.666-18.5c0.576-2.623,1.621-4.983,4.186-6.162c2.607-1.194,6.058-1.391,8.879-1.521
		c1.025-0.047,6.244,0.162,5.816,1.137c-0.756,1.748-2.168,1.889-1.035,5.521c0.594,1.903-12.27-0.66-11.609,2.456
		c2.857,0,9.054,0.172,11.896,0.562c2.711,0.375,5.203-0.262,7.931,0c7.1,0.676,11.776-0.901,17.35-1.621
		c-1.18-1.248-3.1-0.453-4.424-1.181c-0.035,0.052-0.174-0.028-0.516-0.397c-0.826-5.377,7.065-1.731,9.055-1.01
		c1.481,0.537,4.967,2.146,6.506,1.229C226.124,159.922,223.307,159.027,222.295,158.689z"/>
	<path d="M125.313,207.497c-2.059,1.236-3.045,3.359-4.312,5.299c-1.271,1.943-2.606,3.844-4.008,5.699
		c-2.899,3.84-6.226,7.246-8.793,11.314c-0.977,1.549-1.99,2.409-3.891,2.166c-2.116-0.275-3.57,0.93-5.426,1.979
		c-2.112,1.198-4.713,2.272-6.578,3.819c-1.936,1.605-0.143,2.459,1.674,2.125c2.085-0.385,4.055-1.457,5.859-2.526
		c1.371-0.813,2.73-2.008,4.382-1.912c0.1-0.012,0.265,0,0.575,0.072c0.197,0.215,0.246,0.321,0.25,0.399
		c0.592,0.943,0.484,2.031,0.58,3.137c0.107,1.244,0.404,2.466,0.652,3.689c0.434,2.135,0.707,4.92,2.336,6.529
		c0.491,0.486,1.573,1.252,2.322,0.68c0.779-0.596,0.178-2.139,0.05-2.953c-0.388-2.492-1.137-4.953-1.271-7.477
		c-0.508-9.611,7.895-16.158,12.853-23.439c1.398-2.055,2.688-4.178,3.841-6.379C127.125,208.356,127.288,206.308,125.313,207.497z"
		/>
	<path d="M138.112,215.676c-1.166,0.203-1.625,1.408-0.768,2.398c1.551,1.795,5.956,1.321,8.402,1.315
		c0.149-0.008,6.766,5.152,11.396,5.73c4.266,0.533,8.061-0.391,12.078-1.754c3.526-1.195,7.803-2.197,11.002-4.121
		c1.182-0.711,2.435-1.547,1.916-3.029c-0.433-1.221-1.709-1.859-2.937-1.824c-3.256,0.088-6.881,2.361-9.541,4.027
		c-2.742,1.717-5.68,3.203-8.951,3.506c-3.237,0.301-6.309-0.725-8.855-2.707c-2.807-2.18-4.635-3.789-8.337-3.316
		C141.745,216.125,139.805,215.379,138.112,215.676z"/>
	<path d="M220.652,241.831c1.451-0.531,2.565-2.893,2.793-4.301c0.621-3.879-3.188-7.984-5.334-10.855
		c-5.272-7.037-11.616-13.266-18.088-19.189c-0.701-0.643-2.765-3.27-3.959-2.383c-1.403,1.047,1.104,3.556,1.649,4.304
		c2.5,3.409,5.748,6.077,8.513,9.266c2.756,3.181,5.422,6.406,8.284,9.492c2.517,2.711,5.986,7.153,4.595,11.074
		C218.928,240.444,218.729,242.532,220.652,241.831z"/>
	<path d="M203.668,177.667c1.61-1.594,3.756-2.15,5.815-2.961c3.136-1.236,8.138-3.244,9.312-6.758
		c-0.182,0.031-0.627-0.168-0.981-0.127c-0.772,0.092-1.396,0.553-2.039,0.938c-1.127,0.672-2.349,1.561-3.601,1.977
		c-1.606,0.531-2.424,0.119-3.215-1.188c-0.676-1.106-1.166-1.53-2.311-0.702c-1.256,0.909-2.23,2.104-3.594,2.922
		c-1.453,0.873-3.035,1.506-4.67,1.932c-3.279,0.854-6.727,0.887-10.084,0.66c0.621,1.453,0.447,2.082,2.076,2.543
		c1.244,0.35,2.516,0.334,3.785,0.162c1.409-0.197,2.789-0.584,4.188-0.854c0.93-0.176,2.043-0.219,2.939-0.592
		c-0.033,0.178,0.26,0.437,0.061,0.909c-0.184,0.438-0.332,0.824-0.564,1.253c-0.551,0.993-1.145,1.817-0.606,2.979
		C200.232,180.854,203.219,178.112,203.668,177.667z"/>
	<path d="M225.195,192.083c-1.59,0.422-3.202,0.76-4.821,1.033c-3.25,0.549-6.523,0.826-9.81,1.041
		c-3.323,0.219-6.606,0.73-9.922,1.055c-2.356,0.23-10.062-1.014-11.192-0.307c-2.064,0.139-2.604,4.195,14.329,3.65
		c3.507-0.109,6.992-0.943,10.47-1.455c3.471-0.509,6.877-1.115,10.215-2.25c0.879-0.302,10.562-4.498,8.594-6.181
		C232.092,187.858,226.211,191.813,225.195,192.083z"/>
	<path d="M132.997,275.614c-3.535-2.453-6.42-6.152-10.777-7.111c-2.512,1.82,0,2.914,1.762,4.236
		c2.107,1.578,4.137,3.268,6.145,4.973c1.843,1.566,3.709,2.879,6.006,3.713c1.145,0.414,4.969,1.896,6.01,0.814
		c1.712-1.787-2.009-2.785-2.984-3.203C136.991,278.106,134.928,276.954,132.997,275.614z"/>
	<path d="M190.486,187.627c1.953,0.449,3.976,0.654,5.979,0.615c1.527-0.031,9.281-0.281,9.4-2.523
		c0.084-1.631-7.568-0.43-8.779-0.418c-3.59,0.039-6.978-0.207-10.553,0.136C187.939,186.549,188.715,187.217,190.486,187.627z"/>
	<path d="M209.536,232.629c0.772-3.021-2.097-1.426-3.283-0.563c-1.258,0.914-2.398,1.973-3.713,2.817
		c-0.914,0.589-2.263,1.103-2.883,2.031c-0.646,0.963-0.64,1.928,0.395,2.549C201.295,240.209,208.926,235.022,209.536,232.629z"/>
	<path d="M229.588,232.69c2.309-0.732,4.729-1.254,6.869-2.433c0.969-0.534,4.805-3.184,4.123-4.674
		c-0.738-1.625-6.83,2.031-7.832,2.508c-1.054,0.5-3.453,1.134-4.15,2.009C227.635,231.31,228.708,231.95,229.588,232.69z"/>
	<path d="M191.415,205.633c-0.541-1.002-1.447-2.516-2.67-2.741c-0.939-0.173-1.847,0.477-1.916,1.426
		c-0.068,0.938,1.561,3.076,1.973,3.947c0.598,1.264,1.125,2.567,1.453,3.932c0.188,0.783-0.033,3.402,1.096,3.299
		c0.939-0.088,1.023-1.65,1.256-2.4c0.219-2.83,0.088-1.521,0.021-0.607C192.75,210.135,192.547,207.726,191.415,205.633z"/>
	<path d="M176.167,207.31c0.076-0.65,0.115-1.129,0.127-1.482c0.271-3.971,0.533-13.676-2.517-12.334
		c-2.062,0.906-0.276,6.188,0.017,7.699c0.274,1.42,0.334,3.297,0.918,4.613C175.053,206.59,175.432,206.747,176.167,207.31z"/>
	<path d="M123.55,245.217c1.567-0.223,3.502-1.532,1.459-2.821c-0.96-0.607-2.505-0.851-3.599-1.199
		c-0.998-0.318-2.396-1.041-3.451-1.049c-2.312-0.019-1.391,2.385-0.188,3.326c1.44,1.129,3.356,1.59,5.173,1.7
		C122.548,245.174,122.331,245.194,123.55,245.217z"/>
	<path d="M145.405,208.301c1.305-0.643,0.656-4.221,0.287-5.25c-0.521-1.471-1.645-3.344-3.203-3.743
		c-0.887,0.993-0.916,1.086-0.613,2.518c0.207,0.99,0.49,1.967,0.841,2.918C143.027,205.592,144.038,208.974,145.405,208.301z"/>
	<path d="M113.829,257.922c1.062-0.198,2.234-0.321,3.264-0.664c1.167-0.387,0.949-0.396,1.447-1.463
		c-1.274-2.183-8.349-1.535-8.41,1.59C110.091,259.325,112.695,258.133,113.829,257.922z"/>
	<path d="M198.292,273.364c-1.027,1.064-1.23,1.26-1.054,2.676c0.316-0.621,1.722-1.244,2.425-1.797
		c0.957-0.748,1.828-1.605,2.646-2.496c1.594-1.738,3.653-3.641,3.922-5.994c-1,0-3.563,3.176-4.599,4.213
		C200.512,271.094,199.398,272.224,198.292,273.364z"/>
	<path d="M158.548,163.905c0.418-1.368-7.228-1.859-8.249-0.15C148.818,166.243,157.638,166.874,158.548,163.905z"/>
	<path d="M209.184,260.728c-0.15-0.119-0.229-0.285-0.07,0.026C209.137,260.745,209.161,260.735,209.184,260.728z"/>
	<path d="M200.07,180.558c-0.008,0.01-0.016,0.014-0.022,0.021C200.135,180.592,200.186,180.608,200.07,180.558z"/>
	<path d="M111.554,181.899C108.674,182.017,118.286,182.426,111.554,181.899L111.554,181.899z"/>
	<path d="M103.471,180.456c2.361,1.482,5.391,1.555,8.083,1.447c5.571,0.438,10.787-1.644,15.198-4.93
		c0.592-0.439,4.839-3.611,2.389-4.179c-0.979-0.228-3.1,1.104-3.887,1.601c-1.209,0.756-2.41,1.479-3.729,2.047
		c-5.595,2.412-10.701,1.611-16.512,0.938c-0.999-0.115-2.573-0.393-2.922,0.914C101.825,179.292,102.765,180.01,103.471,180.456z"
		/>
	<path d="M111.309,189.101c-1.32-0.07-3.337-0.57-4.607-0.229c-0.961,0.262-1.449,1.392-2.01,2.183
		c2.807,0.495,5.86,1.397,8.709,1.446c1.098,0.021,7.135-0.392,6.405-2.478C119.392,188.827,112.564,189.172,111.309,189.101z"/>
	<path d="M121.489,171.743c1.105-0.277,2.188-0.646,3.225-1.115c1.58-0.713,5.166-2.361,5.162-4.27
		c-1.402-1.078-1.947-0.449-3.561,0.232c-1.375,0.58-2.74,1.172-4.107,1.771c-0.746,0.324-6.812,2.498-4.383,3.906
		C118.54,172.681,120.711,171.938,121.489,171.743z"/>
</g>
<g id="bg">
</g>
</svg>
