<svg xmlns="http://www.w3.org/2000/svg" width="442" height="441" viewBox="0 0 442 442">
  <path d="M268.152 171.58c-12.197 3.138-11.914 6.686.62 7.88 0 0 19.593 1.863 37.507 15.595 17.91 13.732 24.8 32.17 24.8 32.17 4.4 11.794 7.9 11.146 7.77-1.45 0 0-.31-28.69-21.62-45.023s-49.09-9.173-49.09-9.173zM122.184 277.678c-2.386 35.473 9.024 71.45 31.742 98.52 17.237 20.54 41.055 31.394 68.87 31.394 1.278 0 2.57-.023 3.86-.066 30.748-1.066 63.395-14.842 91.93-38.79s47.766-53.706 54.154-83.802c.518-2.434.912-4.85 1.252-7.254H122.184v-.002z"/>
  <path d="M225.438 129.905c-.023.067-.078.13-.102.197.873-2.16.582-4.708-1.018-6.614l-3.84-3.278c3.988-13.128 10.844-36.14 12.125-43.54 1.834-10.565 11.79-23.756 31.436-14.492 11.27 5.314 76.34 41.515 120.57 48.207 8.21 1.243 15.31-.63 20.11-4.325 2.56-1.968 6.08-7.575-7.1-14.837-33.5-18.465-91.79-43.65-128.49-61.406-7.85-3.797-27.43-26.61-37.86-23.52s-16.61 26.765-40.25 47.17c.04 13.03 2.22 34.986 3.23 44.423-2.21-1.22-4.92-1.1-6.85.513l-1.66 1.392-15.34-18.273c-.93-1.1-2.57-1.243-3.67-.322L35.15 164.283c-7.997 5.05-2.683 10.008-1.334 10.512l41.99 17.265-.69.578c-2.555 2.146-2.756 6.115-.447 8.865l18.74 31.83c1.69 2.01 4.33 2.73 6.71 2.072-.2.053-.39.105-.59.145-17.25 53.173-6.91 114.93 31.09 160.194 50.46 60.135 139.25 53.562 207.5-3.72s90.13-143.59 39.666-203.717c-37.984-45.26-97.01-66.158-152.366-58.402zm-.645 1.244c-.07.11-.14.23-.22.34.08-.11.15-.23.22-.34zM101.625 234.79c.332-.192.658-.397.96-.653-.307.256-.627.467-.96.654zm-1.237.558c.33-.105.648-.246.965-.404-.317.158-.64.296-.965.404zm283.016 51.843c-6.89 32.47-27.416 64.39-57.807 89.9-30.39 25.51-65.39 40.18-98.56 41.34-32.994 1.15-61.16-11.03-81.455-35.21-28.19-33.59-39.888-78.63-32.458-121.48.782-4.52 1.34-12.07 11.635-20.713 10.3-8.645 93.68-78.624 101.99-85.594 8.3-6.97 15.52-7.5 19.13-7.564 44.53-.777 88.14 18.667 116.97 53.02 20.3 24.18 27.4 54.034 20.54 86.327z"/>
</svg>