<?xml version="1.0" encoding="utf-8"?>
<!-- Generator: Adobe Illustrator 16.0.0, SVG Export Plug-In . SVG Version: 6.00 Build 0)  -->
<!DOCTYPE svg PUBLIC "-//W3C//DTD SVG 1.1//EN" "http://www.w3.org/Graphics/SVG/1.1/DTD/svg11.dtd">
<svg version="1.1" id="Layer_1" xmlns="http://www.w3.org/2000/svg" xmlns:xlink="http://www.w3.org/1999/xlink" x="0px" y="0px"
	 width="442px" height="441px" viewBox="106.5 20.5 442 441" enable-background="new 106.5 20.5 442 441" xml:space="preserve">
<path display="none" d="M-42.271,231.979c-14.75-38.169-45.207-98.914-63.072-138.706c-3.821-8.505-4.176-40.675-14.852-45.316
	c-10.675-4.642-32.021,10.512-65.434,10.978c-8.928,10.713-22.243,30.206-27.912,38.63c-0.975-2.515-3.278-4.287-5.967-4.287h-2.318
	V67.757c0-1.536-1.248-2.784-2.784-2.784c0,0-154.973-21.058-165-22.416c-10.022-1.363-9.082,6.36-8.323,7.699l22.536,43.027h-0.96
	c-3.571,0-6.465,3.115-6.465,6.96l-6.528,38.981c0,3.845,3.115,6.96,6.96,6.96h-1.436c-1.262,0-2.443-0.341-3.465-0.931
	C-438.001,176.971-472,234.701-472,297.926c0,83.996,77.29,139.686,172.632,139.686c95.343,0,172.632-55.689,172.632-139.686
	c0-62.966-33.725-120.47-84.086-152.274c2.529-1.042,4.31-3.528,4.31-6.432l-0.893-5.328c12.297-8.016,33.744-22.162,39.888-27.346
	c8.77-7.396,26.001-11.361,35.731,9.744c5.583,12.11,34.013,86.539,65.664,122.443c5.88,6.671,12.984,10.017,19.454,10.291
	C-43.211,249.168-36.467,246.998-42.271,231.979z M-207.021,174.019c37.032,29.991,59.4,75.926,59.4,123.907
	c0,33.778-14.712,63.13-42.542,84.889c-27.975,21.869-66.759,33.912-109.21,33.912c-42.446,0-81.23-12.043-109.209-33.912
	c-27.831-21.754-42.542-51.11-42.542-84.889c0-46.92,21.389-91.881,56.962-121.891c3.749-3.163,9.403-8.976,23.789-8.976
	s130.867,0,142.469,0C-216.299,167.059-210.016,171.59-207.021,174.019z"/>
<path display="none" d="M-439.432,296.4c-0.005,0.508-0.024,1.018-0.024,1.525c0,30.059,13.162,56.232,38.059,75.696
	c25.935,20.275,62.17,31.44,102.024,31.44c39.854,0,76.09-11.165,102.024-31.44c24.897-19.464,38.059-45.638,38.059-75.696
	c0-0.508-0.015-1.018-0.024-1.525H-439.432L-439.432,296.4z"/>
<path display="none" d="M-216.064,187.33c-12.154-5.813-14.367-2.717-4.911,6.883c0,0,14.774,15.005,20.016,38.583
	c5.237,23.578-1.795,43.425-1.795,43.425c-4.502,12.701-1.186,14.572,7.363,4.156c0,0,19.483-23.726,13.253-51.768
	C-188.368,200.573-216.064,187.33-216.064,187.33z"/>
<path display="none" d="M-216.064,187.33c-12.154-5.813-14.367-2.717-4.911,6.883c0,0,14.774,15.005,20.016,38.583
	c5.237,23.578-1.795,43.425-1.795,43.425c-4.502,12.701-1.186,14.572,7.363,4.156c0,0,19.483-23.726,13.253-51.768
	C-188.368,200.573-216.064,187.33-216.064,187.33z"/>
<path d="M-618.271,231.979c-14.75-38.169-45.207-98.914-63.072-138.706c-3.821-8.505-4.176-40.675-14.852-45.316
	c-10.675-4.642-32.021,10.512-65.434,10.978c-8.928,10.713-22.243,30.206-27.912,38.63c-0.975-2.515-3.279-4.287-5.967-4.287h-2.318
	V67.757c0-1.536-1.248-2.784-2.784-2.784c0,0-154.973-21.058-165-22.416c-10.022-1.363-9.082,6.36-8.323,7.699l22.536,43.027h-0.96
	c-3.571,0-6.465,3.115-6.465,6.96l-6.528,38.981c0,3.845,3.115,6.96,6.96,6.96h-1.436c-1.262,0-2.443-0.341-3.465-0.931
	c-50.712,31.718-84.71,89.448-84.71,152.673c0,83.996,77.29,139.686,172.632,139.686s172.632-55.689,172.632-139.686
	c0-62.966-33.725-120.47-84.086-152.274c2.529-1.042,4.31-3.528,4.31-6.432l-0.893-5.328c12.297-8.016,33.744-22.162,39.888-27.346
	c8.77-7.396,26.002-11.361,35.731,9.744c5.583,12.11,34.013,86.539,65.664,122.443c5.88,6.671,12.984,10.017,19.454,10.291
	C-619.211,249.168-612.467,246.998-618.271,231.979z M-783.021,174.019c37.032,29.991,59.4,75.926,59.4,123.907
	c0,33.778-14.712,63.13-42.542,84.889c-27.975,21.869-66.759,33.912-109.21,33.912c-42.446,0-81.23-12.043-109.209-33.912
	c-27.831-21.754-42.542-51.11-42.542-84.889c0-46.92,21.389-91.881,56.962-121.891c3.749-3.163,9.403-8.976,23.789-8.976
	s130.867,0,142.469,0C-792.299,167.059-786.016,171.59-783.021,174.019z"/>
<path d="M-792.064,187.33c-12.154-5.813-14.366-2.717-4.911,6.883c0,0,14.774,15.005,20.016,38.583
	c5.237,23.578-1.795,43.425-1.795,43.425c-4.502,12.701-1.186,14.572,7.363,4.156c0,0,19.483-23.726,13.253-51.768
	C-764.368,200.573-792.064,187.33-792.064,187.33z"/>
<path d="M-792.064,187.33c-12.154-5.813-14.366-2.717-4.911,6.883c0,0,14.774,15.005,20.016,38.583
	c5.237,23.578-1.795,43.425-1.795,43.425c-4.502,12.701-1.186,14.572,7.363,4.156c0,0,19.483-23.726,13.253-51.768
	C-764.368,200.573-792.064,187.33-792.064,187.33z"/>
<path d="M369.152,189.571c-12.197,3.139-11.914,6.687,0.619,7.881c0,0,19.594,1.863,37.507,15.595
	c17.914,13.733,24.807,32.17,24.807,32.17c4.406,11.794,7.905,11.146,7.771-1.45c0,0-0.308-28.689-21.615-45.023
	C396.935,182.41,369.152,189.571,369.152,189.571z"/>
<path d="M369.152,189.571c-12.197,3.139-11.914,6.687,0.619,7.881c0,0,19.594,1.863,37.507,15.595
	c17.914,13.733,24.807,32.17,24.807,32.17c4.406,11.794,7.905,11.146,7.771-1.45c0,0-0.308-28.689-21.615-45.023
	C396.935,182.41,369.152,189.571,369.152,189.571z"/>
<path d="M223.184,295.67c-2.386,35.473,9.024,71.448,31.742,98.521c17.237,20.539,41.055,31.392,68.871,31.392
	c1.277,0,2.568-0.023,3.859-0.066c30.748-1.066,63.394-14.842,91.93-38.789c28.535-23.947,47.765-53.707,54.153-83.803
	c0.519-2.434,0.912-4.849,1.253-7.254H223.184z"/>
<path d="M326.438,147.897c-0.025,0.067-0.078,0.13-0.102,0.197c0.873-2.16,0.581-4.708-1.018-6.614l-3.84-3.278
	c3.988-13.128,10.844-36.139,12.125-43.541c1.834-10.564,11.789-23.755,31.436-14.491c11.274,5.314,76.344,41.515,120.575,48.207
	c8.218,1.243,15.312-0.629,20.112-4.325c2.559-1.968,6.081-7.575-7.1-14.837c-33.494-18.465-91.79-43.651-128.486-61.406
	c-7.843-3.797-27.427-26.611-37.857-23.52c-10.43,3.091-16.608,26.765-40.248,47.169c0.043,13.032,2.223,34.987,3.226,44.424
	c-2.208-1.219-4.92-1.1-6.85,0.513l-1.661,1.392l-15.336-18.273c-0.922-1.099-2.563-1.243-3.667-0.322
	c0,0-123.595,78.034-131.592,83.083c-7.997,5.049-2.683,10.008-1.334,10.512l41.986,17.266l-0.691,0.576
	c-2.554,2.146-2.755,6.115-0.446,8.865l18.744,31.829c1.69,2.011,4.334,2.731,6.71,2.073c-0.197,0.053-0.389,0.105-0.585,0.145
	c-17.242,53.174-6.902,114.931,31.09,160.195c50.467,60.134,139.252,53.562,207.508-3.721s90.13-143.587,39.667-203.716
	C440.82,161.04,381.795,140.141,326.438,147.897z M325.793,149.141c-0.071,0.115-0.139,0.23-0.221,0.341
	C325.654,149.371,325.722,149.256,325.793,149.141z M202.625,252.782c0.332-0.192,0.658-0.398,0.96-0.653
	C203.278,252.384,202.957,252.596,202.625,252.782z M201.387,253.34c0.331-0.106,0.648-0.246,0.965-0.404
	C202.035,253.094,201.713,253.233,201.387,253.34z M484.404,305.184c-6.888,32.463-27.417,64.388-57.806,89.89
	c-30.389,25.503-65.391,40.182-98.559,41.333c-32.995,1.147-61.162-11.03-81.456-35.213c-28.19-33.59-39.888-78.629-32.458-121.482
	c0.782-4.518,1.339-12.072,11.635-20.717c10.301-8.646,93.687-78.625,101.995-85.594c8.304-6.969,15.528-7.502,19.133-7.565
	c44.529-0.777,88.143,18.667,116.971,53.021C484.155,243.033,491.259,272.89,484.404,305.184z"/>
</svg>
