<?xml version="1.0" encoding="utf-8"?>
<!-- Generator: Adobe Illustrator 16.0.0, SVG Export Plug-In . SVG Version: 6.00 Build 0)  -->
<!DOCTYPE svg PUBLIC "-//W3C//DTD SVG 1.1//EN" "http://www.w3.org/Graphics/SVG/1.1/DTD/svg11.dtd">
<svg version="1.1" id="Layer_1" xmlns="http://www.w3.org/2000/svg" xmlns:xlink="http://www.w3.org/1999/xlink" x="0px" y="0px"
	 width="442px" height="441px" viewBox="0 0 442 441" enable-background="new 0 0 442 441" xml:space="preserve">
<path d="M268.152,171.579c-12.197,3.139-11.914,6.687,0.619,7.881c0,0,19.594,1.863,37.508,15.595
	c17.914,13.732,24.807,32.17,24.807,32.17c4.406,11.794,7.904,11.146,7.771-1.449c0,0-0.309-28.69-21.615-45.024
	S268.152,171.579,268.152,171.579z"/>
<path d="M122.184,277.678c-2.386,35.473,9.024,71.449,31.742,98.521c17.237,20.539,41.055,31.393,68.871,31.393
	c1.277,0,2.568-0.023,3.859-0.066c30.748-1.066,63.395-14.842,91.93-38.789s47.766-53.707,54.154-83.803
	c0.518-2.434,0.912-4.85,1.252-7.254H122.184V277.678z"/>
<path d="M225.438,129.905c-0.023,0.067-0.078,0.13-0.102,0.197c0.873-2.16,0.582-4.708-1.018-6.614l-3.84-3.278
	c3.988-13.128,10.844-36.139,12.125-43.541c1.834-10.564,11.789-23.755,31.436-14.491c11.273,5.314,76.344,41.515,120.576,48.207
	c8.217,1.243,15.311-0.629,20.111-4.325c2.559-1.968,6.08-7.575-7.1-14.837c-33.494-18.465-91.791-43.651-128.486-61.406
	c-7.844-3.797-27.428-26.611-37.857-23.52s-16.608,26.765-40.248,47.169c0.043,13.032,2.223,34.987,3.227,44.424
	c-2.209-1.219-4.921-1.1-6.851,0.513l-1.661,1.392l-15.336-18.273c-0.922-1.099-2.562-1.243-3.667-0.322
	c0,0-123.595,78.034-131.592,83.083c-7.997,5.049-2.683,10.008-1.334,10.512l41.986,17.266l-0.691,0.576
	c-2.554,2.146-2.755,6.115-0.446,8.865l18.744,31.83c1.69,2.01,4.334,2.73,6.71,2.072c-0.197,0.053-0.389,0.105-0.585,0.145
	c-17.242,53.174-6.902,114.932,31.09,160.195c50.467,60.135,139.251,53.562,207.507-3.721s90.131-143.588,39.668-203.716
	C339.82,143.048,280.795,122.149,225.438,129.905z M224.793,131.149c-0.07,0.115-0.139,0.23-0.221,0.341
	C224.654,131.379,224.723,131.264,224.793,131.149z M101.625,234.791c0.332-0.193,0.658-0.398,0.96-0.654
	C102.278,234.393,101.958,234.604,101.625,234.791z M100.388,235.348c0.331-0.105,0.648-0.246,0.965-0.404
	C101.036,235.102,100.713,235.24,100.388,235.348z M383.404,287.191c-6.889,32.465-27.416,64.389-57.807,89.891
	c-30.389,25.504-65.391,40.182-98.559,41.334c-32.995,1.146-61.162-11.031-81.456-35.213
	c-28.19-33.592-39.888-78.629-32.458-121.482c0.782-4.52,1.339-12.072,11.635-20.717c10.301-8.646,93.688-78.625,101.996-85.595
	c8.303-6.969,15.527-7.502,19.133-7.565c44.529-0.777,88.143,18.667,116.971,53.021C383.156,225.042,390.26,254.898,383.404,287.191
	z"/>
</svg>
